HIERARCHY
ROOT hip
{
  OFFSET 0 0 0
  CHANNELS 6 Xposition Yposition Zposition Zrotation Yrotation Xrotation
  JOINT abdomen
  {
    OFFSET 0 20.6881 -0.73152
    CHANNELS 3 Zrotation Xrotation Yrotation
    JOINT chest
    {
      OFFSET 0 11.7043 -0.48768
      CHANNELS 3 Zrotation Xrotation Yrotation
      JOINT neck
      {
        OFFSET 0 22.1894 -2.19456
        CHANNELS 3 Zrotation Xrotation Yrotation
        JOINT head
        {
          OFFSET -0.24384 7.07133 1.2192
          CHANNELS 3 Zrotation Xrotation Yrotation
          JOINT leftEye
          {
            OFFSET 4.14528 8.04674 8.04672
            CHANNELS 3 Zrotation Xrotation Yrotation
            End Site
            {
              OFFSET 1 0 0
            }
          }
          JOINT rightEye
          {
            OFFSET -3.6576 8.04674 8.04672
            CHANNELS 3 Zrotation Xrotation Yrotation
            End Site
            {
              OFFSET 1 0 0
            }
          }
        }
      }
      JOINT rCollar
      {
        OFFSET -2.68224 19.2634 -4.8768
        CHANNELS 3 Zrotation Xrotation Yrotation
        JOINT rShldr
        {
          OFFSET -8.77824 -1.95073 1.46304
          CHANNELS 3 Zrotation Xrotation Yrotation
          JOINT rForeArm
          {
            OFFSET -28.1742 -1.7115 0.48768
            CHANNELS 3 Zrotation Xrotation Yrotation
            JOINT rHand
            {
              OFFSET -22.5879 0.773209 7.07136
              CHANNELS 3 Zrotation Xrotation Yrotation
              JOINT rThumb1
              {
                OFFSET -1.2192 -0.487915 3.41376
                CHANNELS 3 Zrotation Xrotation Yrotation
                JOINT rThumb2
                {
                  OFFSET -3.37035 -0.52449 3.41376
                  CHANNELS 3 Zrotation Xrotation Yrotation
                  End Site
                  {
                    OFFSET -1.78271 -1.18214 1.43049
                  }
                }
              }
              JOINT rIndex1
              {
                OFFSET -7.75947 0.938293 5.60832
                CHANNELS 3 Zrotation Xrotation Yrotation
                JOINT rIndex2
                {
                  OFFSET -2.54057 -0.884171 1.56538
                  CHANNELS 3 Zrotation Xrotation Yrotation
                  End Site
                  {
                    OFFSET -1.62519 -0.234802 1.16502
                  }
                }
              }
              JOINT rMid1
              {
                OFFSET -8.24714 1.18213 3.41376
                CHANNELS 3 Zrotation Xrotation Yrotation
                JOINT rMid2
                {
                  OFFSET -3.10165 -0.590103 1.0647
                  CHANNELS 3 Zrotation Xrotation Yrotation
                  End Site
                  {
                    OFFSET -2.48547 -0.328903 0.83742
                  }
                }
              }
              JOINT rRing1
              {
                OFFSET -8.82822 0.546677 1.51678
                CHANNELS 3 Zrotation Xrotation Yrotation
                JOINT rRing2
                {
                  OFFSET -2.60934 -0.819778 -0.0198488
                  CHANNELS 3 Zrotation Xrotation Yrotation
                  End Site
                  {
                    OFFSET -2.33842 -0.294052 0.168128
                  }
                }
              }
              JOINT rPinky1
              {
                OFFSET -8.27202 -0.0477905 -0.4584
                CHANNELS 3 Zrotation Xrotation Yrotation
                JOINT rPinky2
                {
                  OFFSET -1.82734 -0.647385 -0.700984
                  CHANNELS 3 Zrotation Xrotation Yrotation
                  End Site
                  {
                    OFFSET -1.69225 -0.51767 -0.607171
                  }
                }
              }
            }
          }
        }
      }
      JOINT lCollar
      {
        OFFSET 2.68224 19.2634 -4.8768
        CHANNELS 3 Zrotation Xrotation Yrotation
        JOINT lShldr
        {
          OFFSET 8.77824 -1.95073 1.46304
          CHANNELS 3 Zrotation Xrotation Yrotation
          JOINT lForeArm
          {
            OFFSET 28.1742 -1.7115 0.48768
            CHANNELS 3 Zrotation Xrotation Yrotation
            JOINT lHand
            {
              OFFSET 22.5879 0.773209 7.07136
              CHANNELS 3 Zrotation Xrotation Yrotation
              JOINT lThumb1
              {
                OFFSET 1.2192 -0.487915 3.41376
                CHANNELS 3 Zrotation Xrotation Yrotation
                JOINT lThumb2
                {
                  OFFSET 3.37035 -0.52449 3.41376
                  CHANNELS 3 Zrotation Xrotation Yrotation
                  End Site
                  {
                    OFFSET 1.78271 -1.18214 1.43049
                  }
                }
              }
              JOINT lIndex1
              {
                OFFSET 7.75947 0.938293 5.60832
                CHANNELS 3 Zrotation Xrotation Yrotation
                JOINT lIndex2
                {
                  OFFSET 2.54057 -0.884171 1.56538
                  CHANNELS 3 Zrotation Xrotation Yrotation
                  End Site
                  {
                    OFFSET 1.62519 -0.234802 1.16502
                  }
                }
              }
              JOINT lMid1
              {
                OFFSET 8.24714 1.18213 3.41376
                CHANNELS 3 Zrotation Xrotation Yrotation
                JOINT lMid2
                {
                  OFFSET 3.10165 -0.590103 1.0647
                  CHANNELS 3 Zrotation Xrotation Yrotation
                  End Site
                  {
                    OFFSET 2.48547 -0.328903 0.83742
                  }
                }
              }
              JOINT lRing1
              {
                OFFSET 8.82822 0.546677 1.51678
                CHANNELS 3 Zrotation Xrotation Yrotation
                JOINT lRing2
                {
                  OFFSET 2.60934 -0.819778 -0.0198488
                  CHANNELS 3 Zrotation Xrotation Yrotation
                  End Site
                  {
                    OFFSET 2.33842 -0.294052 0.168128
                  }
                }
              }
              JOINT lPinky1
              {
                OFFSET 8.27202 -0.0477905 -0.4584
                CHANNELS 3 Zrotation Xrotation Yrotation
                JOINT lPinky2
                {
                  OFFSET 1.82734 -0.647385 -0.700984
                  CHANNELS 3 Zrotation Xrotation Yrotation
                  End Site
                  {
                    OFFSET 1.69225 -0.51767 -0.607171
                  }
                }
              }
            }
          }
        }
      }
    }
  }
  JOINT rButtock
  {
    OFFSET -8.77824 4.35084 1.2192
    CHANNELS 3 Zrotation Xrotation Yrotation
    JOINT rThigh
    {
      OFFSET 0 -1.70687 -2.19456
      CHANNELS 3 Zrotation Xrotation Yrotation
      JOINT rShin
      {
        OFFSET 0 -36.8199 0.73152
        CHANNELS 3 Zrotation Xrotation Yrotation
        JOINT rFoot
        {
          OFFSET 0.73152 -45.1104 -5.12064
          CHANNELS 3 Zrotation Xrotation Yrotation
          End Site
          {
            OFFSET -1.1221 -3.69964 12.103
          }
        }
      }
    }
  }
  JOINT lButtock
  {
    OFFSET 8.77824 4.35084 1.2192
    CHANNELS 3 Zrotation Xrotation Yrotation
    JOINT lThigh
    {
      OFFSET 0 -1.70687 -2.19456
      CHANNELS 3 Zrotation Xrotation Yrotation
      JOINT lShin
      {
        OFFSET 0 -36.8199 0.73152
        CHANNELS 3 Zrotation Xrotation Yrotation
        JOINT lFoot
        {
          OFFSET -0.73152 -45.1104 -5.12064
          CHANNELS 3 Zrotation Xrotation Yrotation
          End Site
          {
            OFFSET 1.1221 -3.69964 12.103
          }
        }
      }
    }
  }
}
MOTION
Frames:	6
Frame Time:	0.00833333
56.2908 85.5886 -207.448 0.0 0.0 0.0 2.72257 0.000518388 0.0736197 0.750829 0.0131641 0.129928 -8.45085e-14 7.95139e-16 6.95746e-16 -2.53099e-13 9.54166e-15 2.18197e-15 -0.0 0.0 0.0 -0.0 0.0 0.0 -4.22439e-14 9.24038e-17 5.46658e-16 -8.85712e-13 1.86361e-15 5.1684e-15 -1.53067e-11 4.62214e-12 3.05333e-13 -1.74783e-10 -4.21322e-12 1.21497e-12 -4.12364e-10 8.88762e-13 3.3364e-12 -7.12134e-10 1.53303e-12 5.77589e-12 -4.12358e-10 8.92543e-13 3.33004e-12 7.73091 5.47488 0.417314 -4.12364e-10 8.89561e-13 3.3364e-12 2.90554 0.965183 0.102902 -4.12354e-10 8.89363e-13 3.33879e-12 10.2786 0.731801 0.0259123 -4.12363e-10 8.8817e-13 3.34594e-12 2.22167 -0.733487 -0.20892 -4.24411e-14 9.27921e-17 2.48481e-16 -8.87971e-13 2.14936e-15 4.17448e-15 -1.52442e-11 -4.50625e-12 2.70347e-13 -1.74806e-10 4.93572e-12 1.25314e-12 -4.12282e-10 9.28342e-13 3.33322e-12 -7.11996e-10 1.59664e-12 5.79179e-12 -4.12289e-10 9.31107e-13 3.34912e-12 -7.73091 5.47488 -0.417314 -4.12282e-10 9.28026e-13 3.3364e-12 -2.90554 0.965183 -0.102902 -4.12289e-10 9.28126e-13 3.34276e-12 -10.2786 0.731801 -0.0259123 -4.12276e-10 9.31107e-13 3.3364e-12 -2.22167 -0.733487 0.20892 -2.03217e-16 0.0 -3.88251e-19 2.53324 -8.65196 -0.274491 0.0073934 10.0932 0.189501 -0.51717 -1.4522 0.0286447 2.03217e-16 0.0 3.88251e-19 1.60815 -1.93183 -0.00953735 0.0085975 -2.07865 0.0706176 0.458566 3.99948 -0.132432
56.0054 84.7667 -210.126 -0.4993 -6.5461 10.5836 1.02984 -1.41777 0.968963 2.11444 1.41907 0.318615 -1.1939 5.18691 0.504037 2.18252 -6.25971 1.39403 -0.0 0.0 0.0 -0.0 0.0 0.0 -3.39509e-14 1.53242e-13 -4.58797e-14 22.3529 -6.68766 -0.750652 -2.25823 -0.809493 3.72739 0.172329 9.23582 1.23805 1.74277e-10 8.65217e-11 -1.0604e-09 2.71659e-10 1.50606e-10 -1.83975e-09 1.74282e-10 8.65234e-11 -1.0604e-09 7.73091 5.47488 0.417314 1.74277e-10 8.65217e-11 -1.0604e-09 2.90554 0.965183 0.102902 1.74286e-10 8.65221e-11 -1.06039e-09 10.2786 0.731801 0.0259123 1.74278e-10 8.65223e-11 -1.06039e-09 2.22167 -0.733487 -0.20892 -3.41401e-14 1.53244e-13 -4.61677e-14 -22.3453 5.13488 -1.78094 2.15298 -0.760055 -3.5627 -0.151296 8.65371 -1.16684 -1.1472e-09 -2.22918e-10 3.05795e-10 -1.97302e-09 -3.72939e-10 5.47157e-10 -1.14721e-09 -2.22917e-10 3.0581e-10 -7.73091 5.47488 -0.417314 -1.1472e-09 -2.2292e-10 3.058e-10 -2.90554 0.965183 -0.102902 -1.1472e-09 -2.2292e-10 3.05805e-10 -10.2786 0.731801 -0.0259123 -1.14719e-09 -2.22916e-10 3.05801e-10 -2.22167 -0.733487 0.20892 -2.03217e-16 0.0 -3.88251e-19 0.80961 -11.2038 1.39697 0.00975542 12.2849 0.222175 -0.593301 -6.02271 -1.10964 2.03217e-16 0.0 3.88251e-19 2.29358 -3.40662 -2.01663 0.00101455 -0.982965 0.00274384 0.88076 -0.324311 4.52063
56.0079 84.7643 -210.172 -0.0413 -6.6304 10.404 -0.698966 -2.93018 1.93968 3.54449 2.90839 0.524788 -2.55664 10.8554 1.07829 4.80073 -13.1958 2.99184 -0.0 0.0 0.0 -0.0 0.0 0.0 -2.54769e-14 3.22368e-13 -9.6951e-14 45.7889 -13.7759 -1.57179 -4.52856 -1.6525 7.66572 -0.10262 19.0205 2.66357 8.22595e-10 1.81183e-10 -2.23612e-09 1.35888e-09 3.1539e-10 -3.87972e-09 8.22599e-10 1.81183e-10 -2.23613e-09 7.73091 5.47488 0.417314 8.22595e-10 1.81182e-10 -2.23612e-09 2.90554 0.965183 0.102902 8.22603e-10 1.81183e-10 -2.23612e-09 10.2786 0.731801 0.0259123 8.22595e-10 1.81185e-10 -2.23612e-09 2.22167 -0.733487 -0.20892 -2.5659e-14 3.22371e-13 -9.72305e-14 -45.6209 10.4922 -3.70402 4.31392 -1.54757 -7.31046 0.0900448 17.8312 -2.49813 -1.96544e-09 -4.70148e-10 6.42092e-10 -3.37705e-09 -7.86582e-10 1.14896e-09 -1.96545e-09 -4.7015e-10 6.42104e-10 -7.73091 5.47488 -0.417314 -1.96544e-09 -4.70152e-10 6.42097e-10 -2.90554 0.965183 -0.102902 -1.96544e-09 -4.70152e-10 6.42101e-10 -10.2786 0.731801 -0.0259123 -1.96543e-09 -4.70147e-10 6.42101e-10 -2.22167 -0.733487 0.20892 -2.03217e-16 0.0 -3.88251e-19 -0.820101 -13.887 3.20619 0.0089653 14.5799 0.256402 -0.860034 -10.6923 -2.29829 2.03217e-16 0.0 3.88251e-19 2.93125 -4.95682 -4.12393 -0.00414205 0.166636 -0.0687523 2.09001 -4.82603 9.48296
55.9774 84.76 -210.212 0.3645 -6.713 10.2154 -2.22238 -4.25002 2.76637 4.81381 4.23064 0.697597 -3.8643 15.5558 1.56319 7.5039 -18.7334 4.39015 -0.0 0.0 0.0 -0.0 0.0 0.0 -1.73648e-14 4.59543e-13 -1.38732e-13 66.5042 -20.0487 -2.38099 -6.46072 -2.38741 11.1909 -0.810586 27.6522 4.13949 1.34756e-09 2.57788e-10 -3.18786e-09 2.23924e-09 4.48753e-10 -5.53079e-09 1.34756e-09 2.57785e-10 -3.18787e-09 7.73091 5.47488 0.417314 1.34756e-09 2.57786e-10 -3.18786e-09 2.90554 0.965183 0.102902 1.34757e-09 2.57788e-10 -3.18786e-09 10.2786 0.731801 0.0259123 1.34756e-09 2.57791e-10 -3.18785e-09 2.22167 -0.733487 -0.20892 -1.75382e-14 4.59546e-13 -1.39e-13 -66.0496 15.344 -5.51868 6.17702 -2.24493 -10.6955 0.703203 25.9156 -3.84813 -2.61703e-09 -6.7061e-10 9.1072e-10 -4.49506e-09 -1.12201e-09 1.62989e-09 -2.61704e-09 -6.70615e-10 9.1073e-10 -7.73091 5.47488 -0.417314 -2.61703e-09 -6.70616e-10 9.10726e-10 -2.90554 0.965183 -0.102902 -2.61704e-09 -6.70616e-10 9.10728e-10 -10.2786 0.731801 -0.0259123 -2.61703e-09 -6.7061e-10 9.10731e-10 -2.22167 -0.733487 0.20892 -2.03217e-16 0.0 -3.88251e-19 -2.17408 -16.2617 4.84815 0.00660413 16.6681 0.290323 -1.30712 -15.1403 -3.48905 2.03217e-16 0.0 3.88251e-19 3.35342 -6.32728 -6.05716 -0.00636612 1.20841 -0.132942 3.82815 -8.71286 13.9906
55.901 84.7601 -210.248 0.5913 -6.7257 10.1069 -3.33368 -5.09307 3.22596 5.70253 5.13546 0.785405 -4.79215 17.8423 1.76239 9.57552 -20.832 5.02409 -0.0 0.0 0.0 -0.0 0.0 0.0 -1.01574e-14 5.16838e-13 -1.57288e-13 80.814 -24.2958 -3.03867 -7.76676 -2.89079 13.675 -1.60245 33.4552 5.3284 1.56413e-09 2.89249e-10 -3.57962e-09 2.60247e-09 5.03565e-10 -6.20962e-09 1.56414e-09 2.89246e-10 -3.57963e-09 7.73091 5.47488 0.417314 1.56413e-09 2.89247e-10 -3.57962e-09 2.90554 0.965183 0.102902 1.56414e-09 2.89249e-10 -3.57962e-09 10.2786 0.731801 0.0259123 1.56413e-09 2.89253e-10 -3.57961e-09 2.22167 -0.733487 -0.20892 -1.03181e-14 5.16841e-13 -1.57537e-13 -80.0405 18.9871 -6.90612 7.48747 -2.74883 -13.1669 1.37521 31.3119 -4.9042 -2.85202e-09 -7.54154e-10 1.01018e-09 -4.89805e-09 -1.2619e-09 1.8086e-09 -2.85202e-09 -7.5416e-10 1.01019e-09 -7.73091 5.47488 -0.417314 -2.85202e-09 -7.54161e-10 1.01018e-09 -2.90554 0.965183 -0.102902 -2.85202e-09 -7.5416e-10 1.01018e-09 -10.2786 0.731801 -0.0259123 -2.85201e-09 -7.54154e-10 1.01019e-09 -2.22167 -0.733487 0.20892 -2.03217e-16 0.0 -3.88251e-19 -3.17268 -17.9044 5.9842 0.00531456 18.2396 0.321561 -1.87817 -19.0495 -4.61706 2.03217e-16 0.0 3.88251e-19 3.45084 -7.27273 -7.53334 -0.00661213 1.98062 -0.17884 5.40234 -11.3313 17.1685
55.8041 84.7623 -210.266 0.863 -6.8098 9.9375 -3.89592 -5.26598 3.13089 6.05778 5.45744 0.743327 -5.04864 16.4544 1.46159 10.4259 -17.7095 4.31551 -0.0 0.0 0.0 -0.0 0.0 0.0 -2.2659e-15 4.45755e-13 -1.40463e-13 86.3644 -25.7118 -3.38103 -8.28885 -3.0954 14.6908 -1.94041 35.3213 5.76422 1.24184e-09 2.3892e-10 -3.02547e-09 2.06085e-09 4.16346e-10 -5.24536e-09 1.24185e-09 2.38917e-10 -3.02547e-09 7.73091 5.47488 0.417314 1.24184e-09 2.38918e-10 -3.02547e-09 2.90554 0.965183 0.102902 1.24185e-09 2.3892e-10 -3.02547e-09 10.2786 0.731801 0.0259123 1.24184e-09 2.38924e-10 -3.02546e-09 2.22167 -0.733487 -0.20892 -2.40764e-15 4.45756e-13 -1.40675e-13 -85.3324 21.0406 -7.579 8.1182 -3.00921 -14.3733 1.64385 32.9227 -5.25916 -2.37423e-09 -6.46381e-10 8.011e-10 -4.07793e-09 -1.08234e-09 1.43757e-09 -2.37424e-09 -6.46386e-10 8.01109e-10 -7.73091 5.47488 -0.417314 -2.37423e-09 -6.46387e-10 8.01106e-10 -2.90554 0.965183 -0.102902 -2.37424e-09 -6.46385e-10 8.0111e-10 -10.2786 0.731801 -0.0259123 -2.37423e-09 -6.46379e-10 8.01112e-10 -2.22167 -0.733487 0.20892 -2.03217e-16 0.0 -3.88251e-19 -3.84777 -18.5187 6.31746 0.00789272 19.0672 0.348794 -2.52187 -22.4559 -5.655 2.03217e-16 0.0 3.88251e-19 3.18417 -7.61864 -8.40145 -0.00653508 2.34824 -0.198767 6.08153 -12.351 18.3423
